<svg width="62" height="63" viewBox="0 0 62 63" fill="none" xmlns="http://www.w3.org/2000/svg">
<g id="Group 45">
<path id="Rectangle 42" d="M62 63L0 63L-5.50763e-06 5.42021e-06L62 0L62 63Z" fill="white" fill-opacity="0.3"/>
<path id="Arrow 4" d="M23.9393 30.9393C23.3536 31.5251 23.3536 32.4749 23.9393 33.0607L33.4853 42.6066C34.0711 43.1924 35.0208 43.1924 35.6066 42.6066C36.1924 42.0208 36.1924 41.0711 35.6066 40.4853L27.1213 32L35.6066 23.5147C36.1924 22.9289 36.1924 21.9792 35.6066 21.3934C35.0208 20.8076 34.0711 20.8076 33.4853 21.3934L23.9393 30.9393ZM26 30.5L25 30.5L25 33.5L26 33.5L26 30.5Z" fill="white"/>
</g>
</svg>
