<svg width="64" height="64" viewBox="0 0 64 64" fill="none" xmlns="http://www.w3.org/2000/svg">
<path d="M10.6452 0C9.24722 0 7.86297 0.275345 6.57143 0.810315C5.2799 1.34528 4.10639 2.1294 3.1179 3.1179C1.12154 5.11425 0 7.82189 0 10.6452V53.2258C0 56.0491 1.12154 58.7567 3.1179 60.7531C4.10639 61.7416 5.2799 62.5257 6.57143 63.0607C7.86297 63.5956 9.24722 63.871 10.6452 63.871H53.2258C56.0491 63.871 58.7567 62.7494 60.7531 60.7531C62.7494 58.7567 63.871 56.0491 63.871 53.2258V10.6452C63.871 9.24722 63.5956 7.86297 63.0607 6.57143C62.5257 5.2799 61.7416 4.10639 60.7531 3.1179C59.7646 2.1294 58.5911 1.34528 57.2995 0.810315C56.008 0.275345 54.6238 0 53.2258 0H10.6452ZM4.25807 10.6452C4.25807 8.9512 4.93099 7.32662 6.1288 6.1288C7.32662 4.93099 8.9512 4.25806 10.6452 4.25806H53.2258C54.9198 4.25806 56.5444 4.93099 57.7422 6.1288C58.94 7.32662 59.6129 8.9512 59.6129 10.6452V53.2258C59.6129 54.9198 58.94 56.5444 57.7422 57.7422C56.5444 58.94 54.9198 59.6129 53.2258 59.6129H10.6452C8.9512 59.6129 7.32662 58.94 6.1288 57.7422C4.93099 56.5444 4.25807 54.9198 4.25807 53.2258V10.6452Z" fill="black"/>
<path d="M38.592 47H34.56V38.888H19.728V35.048L34.08 15.416H38.592V35.24H42.672L42.24 38.888H38.592V47ZM34.56 35.24V27.272C34.56 24.824 34.608 21.704 34.656 19.64C33.408 22.088 27.264 30.536 23.856 35.24H34.56Z" fill="black"/>
</svg>
