<svg width="64" height="64" viewBox="0 0 64 64" fill="none" xmlns="http://www.w3.org/2000/svg">
<path d="M10.6452 0C9.24722 0 7.86297 0.275345 6.57143 0.810315C5.2799 1.34528 4.10639 2.1294 3.1179 3.1179C1.12154 5.11425 0 7.82189 0 10.6452V53.2258C0 56.0491 1.12154 58.7567 3.1179 60.7531C4.10639 61.7416 5.2799 62.5257 6.57143 63.0607C7.86297 63.5956 9.24722 63.871 10.6452 63.871H53.2258C56.0491 63.871 58.7567 62.7494 60.7531 60.7531C62.7494 58.7567 63.871 56.0491 63.871 53.2258V10.6452C63.871 9.24722 63.5956 7.86297 63.0607 6.57143C62.5257 5.2799 61.7416 4.10639 60.7531 3.1179C59.7646 2.1294 58.5911 1.34528 57.2995 0.810315C56.008 0.275345 54.6238 0 53.2258 0H10.6452ZM4.25807 10.6452C4.25807 8.9512 4.93099 7.32662 6.1288 6.1288C7.32662 4.93099 8.9512 4.25806 10.6452 4.25806H53.2258C54.9198 4.25806 56.5444 4.93099 57.7422 6.1288C58.94 7.32662 59.6129 8.9512 59.6129 10.6452V53.2258C59.6129 54.9198 58.94 56.5444 57.7422 57.7422C56.5444 58.94 54.9198 59.6129 53.2258 59.6129H10.6452C8.9512 59.6129 7.32662 58.94 6.1288 57.7422C4.93099 56.5444 4.25807 54.9198 4.25807 53.2258V10.6452Z" fill="black"/>
<path d="M26.104 22.952H22.024C22.552 19.064 25.288 14.84 32.056 14.84C38.584 14.84 41.56 18.824 41.56 23.048C41.56 26.888 39.304 28.856 37.384 29.576V29.672C40.216 30.584 42.904 32.936 42.904 37.64C42.904 42.68 39.784 47.576 31.96 47.576C24.712 47.576 21.64 43.016 21.16 38.84H25.336C25.96 41.624 28.072 44.072 32.152 44.072C36.664 44.072 38.584 41.096 38.584 37.688C38.584 33.464 35.992 31.544 31.72 31.544H29.464V28.088H31.336C35.512 28.088 37.288 26.504 37.288 23.192C37.288 20.312 35.416 18.392 31.912 18.392C28.12 18.392 26.728 20.408 26.104 22.952Z" fill="black"/>
</svg>
