<svg width="95" height="95" viewBox="0 0 95 95" fill="none" xmlns="http://www.w3.org/2000/svg">
<path d="M69.9587 42.8333C69.9587 41.7282 69.5284 40.6684 68.7627 39.887C67.9969 39.1056 66.9583 38.6666 65.8753 38.6666H52.972L54.932 29.1458C54.9728 28.9375 54.9932 28.7083 54.9932 28.4791C54.9932 27.625 54.6462 26.8333 54.0949 26.2708L51.9307 24.0833L38.4966 37.7916C37.7412 38.5625 37.292 39.6041 37.292 40.75V61.5833C37.292 62.6884 37.7222 63.7482 38.488 64.5296C39.2537 65.311 40.2924 65.75 41.3753 65.75H59.7503C61.4449 65.75 62.8945 64.7083 63.507 63.2083L69.6728 48.5208C69.8566 48.0416 69.9587 47.5416 69.9587 47V42.8333ZM25.042 65.75H33.2087V40.75H25.042V65.75Z" fill="white"/>
<circle cx="47.5" cy="47.5" r="45.5" stroke="white" stroke-width="4"/>
</svg>
