<svg width="19" height="19" viewBox="0 0 19 19" fill="none" xmlns="http://www.w3.org/2000/svg">
<path d="M0.501709 1.5167C0.506643 1.3501 0.515821 1.1753 0.529244 0.992283C0.543334 0.809286 0.561176 0.634738 0.582769 0.468638L6.43021 0.641811L7.28175 5.66922L4.29718 8.4821C5.02601 9.77091 5.89953 10.96 6.91773 12.0492C7.93595 13.1379 9.03444 14.0498 10.2132 14.785L13.1713 12.0214L18.1667 13.0947L17.9935 18.9421C17.826 18.9705 17.6505 18.982 17.4673 18.9766L16.9425 18.961C14.7935 18.8974 12.7129 18.3562 10.7008 17.3375C8.6881 16.3195 6.91372 14.9998 5.37772 13.3782C3.84169 11.7574 2.6291 9.91269 1.73994 7.84413C0.850807 5.7749 0.438064 3.66576 0.501709 1.5167Z" fill="#070707"/>
</svg>
